<?xml version="1.0" encoding="UTF-8" standalone="no"?>
<!DOCTYPE svg PUBLIC "-//W3C//DTD SVG 1.1//EN" "http://www.w3.org/Graphics/SVG/1.1/DTD/svg11.dtd">
<svg version="1.1" xmlns="http://www.w3.org/2000/svg" xmlns:xlink="http://www.w3.org/1999/xlink" preserveAspectRatio="xMidYMid meet" viewBox="-2.000000039062485 -2.000000039062485 516.0000200000007 516.0000200000007" width="512" height="512"><defs><path d="M-1 255C-1 396.39 113.61 511 255 511C396.39 511 511 396.39 511 255C510.83 113.68 396.32 -0.83 255 -1C113.61 -1 -1 113.61 -1 255ZM31 255C31 131.29 131.29 31 255 31C378.71 31 479 131.29 479 255C478.87 378.66 378.66 478.87 255 479C131.29 479 31 378.71 31 255Z" id="e2ugdmBFhS"></path><path d="M356.82 130.55C350.04 137.34 316.09 171.28 255 232.38C193.91 171.28 159.96 137.34 153.18 130.55C147.04 124.2 136.91 124.02 130.55 130.16C124.2 136.3 124.02 146.43 130.16 152.78C130.29 152.91 130.42 153.05 130.55 153.18C137.34 159.96 171.28 193.91 232.38 255C171.28 316.09 137.34 350.04 130.55 356.82C124.2 362.96 124.02 373.09 130.16 379.45C136.3 385.8 146.43 385.98 152.78 379.84C152.91 379.71 153.05 379.58 153.18 379.45C159.96 372.66 193.91 338.72 255 277.63C316.09 338.72 350.04 372.66 356.82 379.45C363.18 385.59 373.31 385.41 379.45 379.05C385.43 372.86 385.43 363.02 379.45 356.82C372.66 350.04 338.72 316.09 277.63 255C338.72 193.91 372.66 159.96 379.45 153.18C385.7 146.93 385.7 136.8 379.45 130.55C373.2 124.3 363.07 124.3 356.82 130.55Z" id="c5cCIGiULF"></path></defs><g><g><use xlink:href="#e2ugdmBFhS" opacity="1" fill="#aabfd8" fill-opacity="1"></use><g><use xlink:href="#e2ugdmBFhS" opacity="1" fill-opacity="0" stroke="#000000" stroke-width="1" stroke-opacity="0"></use></g></g><g><use xlink:href="#c5cCIGiULF" opacity="1" fill="#aabfd8" fill-opacity="1"></use><g><use xlink:href="#c5cCIGiULF" opacity="1" fill-opacity="0" stroke="#000000" stroke-width="1" stroke-opacity="0"></use></g></g></g></svg>