<?xml version="1.0" encoding="UTF-8" standalone="no"?>
<!DOCTYPE svg PUBLIC "-//W3C//DTD SVG 1.1//EN" "http://www.w3.org/Graphics/SVG/1.1/DTD/svg11.dtd">
<svg version="1.1" xmlns="http://www.w3.org/2000/svg" xmlns:xlink="http://www.w3.org/1999/xlink" preserveAspectRatio="xMidYMid meet" viewBox="72.7806522716397 -0.9999999999999432 496.43869545672067 644" width="492.44" height="640"><defs><path d="M223.18 269.32C221.43 271.08 220.17 273.27 219.55 275.67C217.65 282.97 202.49 341.35 200.6 348.65C199.36 353.43 200.74 358.5 204.23 361.99C206.88 364.63 210.43 366.07 214.07 366.07C215.24 366.07 216.41 365.92 217.57 365.62C224.87 363.73 283.25 348.57 290.55 346.67C292.95 346.05 295.14 344.79 296.9 343.04C318.97 320.96 495.59 144.34 517.67 122.26C517.68 122.26 517.68 122.26 517.68 122.25C517.69 122.25 517.69 122.25 517.69 122.24C522.14 117.8 557.69 82.24 562.14 77.8C567.58 72.36 567.58 63.55 562.14 58.11C556.74 52.71 513.52 9.48 508.11 4.08C505.5 1.47 501.96 0 498.27 0C494.58 0 491.04 1.47 488.43 4.08C483.98 8.52 448.43 44.08 443.98 48.52C443.98 48.53 443.97 48.53 443.97 48.53C443.97 48.53 443.96 48.54 443.96 48.54C399.8 92.7 245.26 247.25 223.18 269.32ZM233.5 332.72L245.55 286.33L453.81 78.06L488.16 112.41L279.89 320.67L233.5 332.72ZM532.61 67.95L507.84 92.72L473.5 58.38L498.27 33.61L532.61 67.95Z" id="bslhCghwn"></path><path d="M538.38 164.79C538.38 194.61 538.38 343.73 538.38 612.16L101.62 612.16L101.62 79.85C256.24 79.85 342.13 79.85 359.31 79.85C367 79.85 373.24 73.62 373.24 65.93C373.24 58.25 367 52.01 359.31 52.01C332.15 52.01 114.86 52.01 87.7 52.01C80.02 52.01 73.78 58.25 73.78 65.93C73.78 121.95 73.78 570.06 73.78 626.08C73.78 633.77 80.02 640 87.7 640C134.16 640 505.84 640 552.3 640C559.98 640 566.22 633.77 566.22 626.08C566.22 579.95 566.22 210.92 566.22 164.79C566.22 157.1 559.99 150.87 552.3 150.87C544.61 150.87 538.38 157.1 538.38 164.79Z" id="dfd58oFGf"></path></defs><g><g><use xlink:href="#bslhCghwn" opacity="1" fill="#aabfd8" fill-opacity="1"></use><g><use xlink:href="#bslhCghwn" opacity="1" fill-opacity="0" stroke="#000000" stroke-width="1" stroke-opacity="0"></use></g></g><g><use xlink:href="#dfd58oFGf" opacity="1" fill="#aabfd8" fill-opacity="1"></use><g><use xlink:href="#dfd58oFGf" opacity="1" fill-opacity="0" stroke="#000000" stroke-width="1" stroke-opacity="0"></use></g></g></g></svg>